<svg width="56" height="56" viewBox="0 0 56 56" fill="none" xmlns="http://www.w3.org/2000/svg">
<g clip-path="url(#clip0_4853_174)">
<path d="M16.3333 30.3333H14C11.4227 30.3333 9.33331 32.4227 9.33331 35V42C9.33331 44.5773 11.4227 46.6666 14 46.6666H16.3333C18.9106 46.6666 21 44.5773 21 42V35C21 32.4227 18.9106 30.3333 16.3333 30.3333Z" stroke="black" stroke-width="2" stroke-linecap="round" stroke-linejoin="round"/>
<path d="M42 30.3333H39.6667C37.0893 30.3333 35 32.4227 35 35V42C35 44.5773 37.0893 46.6666 39.6667 46.6666H42C44.5773 46.6666 46.6667 44.5773 46.6667 42V35C46.6667 32.4227 44.5773 30.3333 42 30.3333Z" stroke="black" stroke-width="2" stroke-linecap="round" stroke-linejoin="round"/>
<path d="M9.33331 35V28C9.33331 23.0493 11.3 18.3013 14.8007 14.8007C18.3013 11.3 23.0493 9.33331 28 9.33331C32.9507 9.33331 37.6986 11.3 41.1993 14.8007C44.7 18.3013 46.6666 23.0493 46.6666 28V35" stroke="black" stroke-width="2" stroke-linecap="round" stroke-linejoin="round"/>
</g>
<defs>
<clipPath id="clip0_4853_174">
<rect width="56" height="56" fill="white"/>
</clipPath>
</defs>
</svg>
